<?xml version="1.0" standalone="no"?>
<!DOCTYPE svg PUBLIC "-//W3C//DTD SVG 20010904//EN"
 "http://www.w3.org/TR/2001/REC-SVG-20010904/DTD/svg10.dtd">
<svg version="1.0" xmlns="http://www.w3.org/2000/svg"
 width="468.000000pt" height="147.000000pt" viewBox="0 0 468.000000 147.000000"
 preserveAspectRatio="xMidYMid meet">

<g transform="translate(0.000000,147.000000) scale(0.100000,-0.100000)"
fill="#000000" stroke="none">
<path d="M3866 1339 c-158 -26 -304 -120 -397 -255 -39 -58 -87 -186 -97 -259
-8 -65 2 -208 17 -240 5 -11 19 -45 30 -75 43 -110 157 -232 271 -290 74 -37
199 -70 266 -70 130 0 288 57 395 143 83 67 165 198 194 312 21 82 19 225 -3
307 -34 122 -134 258 -245 334 -120 81 -287 117 -431 93z m224 -19 c30 -5 93
-28 139 -51 138 -68 231 -175 292 -339 21 -56 24 -81 23 -185 -1 -107 -4 -127
-29 -188 -59 -144 -149 -251 -269 -317 -168 -93 -370 -96 -554 -8 -119 56
-251 213 -281 333 -5 22 -15 58 -20 80 -15 59 -13 160 5 234 28 115 78 206
158 285 143 143 320 195 536 156z"/>
<path d="M3839 1280 c-11 -6 -15 -18 -11 -35 5 -29 11 -31 38 -10 19 14 18 14
-3 15 -28 0 -29 8 -5 26 19 15 5 18 -19 4z"/>
<path d="M3901 1279 c-2 -36 12 -79 26 -79 13 0 13 3 3 15 -7 8 -16 30 -20 48
-4 17 -8 25 -9 16z"/>
<path d="M4006 1274 c-3 -9 -5 -28 -5 -42 1 -17 3 -21 6 -9 6 25 22 21 33 -8
10 -26 24 -32 35 -15 12 19 45 11 45 -10 0 -11 4 -20 9 -20 14 0 61 45 61 59
0 21 -16 11 -35 -21 l-20 -33 -3 35 c-5 63 -11 66 -39 26 -25 -34 -28 -36 -40
-20 -9 13 -10 21 -2 31 6 7 9 20 5 28 -7 20 -42 19 -50 -1z m44 -9 c0 -8 -6
-15 -14 -15 -17 0 -28 14 -19 24 12 12 33 6 33 -9z m70 -35 c0 -5 -4 -10 -10
-10 -5 0 -10 5 -10 10 0 6 5 10 10 10 6 0 10 -4 10 -10z"/>
<path d="M3790 1236 c6 -16 9 -35 6 -43 -9 -22 -27 -14 -38 18 -6 16 -13 28
-16 25 -2 -3 1 -19 8 -36 9 -23 18 -30 34 -28 27 4 33 45 11 73 -14 19 -15 18
-5 -9z"/>
<path d="M3700 1220 c0 -9 5 -21 12 -28 15 -15 3 -16 -24 -1 -28 15 -32 6 -13
-30 18 -36 12 -38 -32 -11 -37 22 -42 14 -23 -36 14 -37 5 -42 -25 -14 -31 29
-44 20 -21 -16 18 -26 17 -26 -6 -19 -12 4 -29 10 -35 12 -24 9 -13 -13 17
-35 33 -25 55 -30 25 -5 -20 15 -20 15 3 10 21 -5 23 -3 18 21 -6 26 -6 26 9
7 14 -17 17 -18 25 -5 13 21 12 44 -2 58 -9 9 -9 12 0 12 7 0 12 -4 12 -9 0
-5 11 -11 24 -13 27 -5 40 11 29 39 -5 12 -2 15 10 10 9 -4 24 -10 33 -13 15
-6 15 -4 0 22 -8 16 -20 36 -25 44 -9 13 -11 13 -11 0z"/>
<path d="M4206 1201 c-11 -12 -14 -21 -8 -21 5 0 8 -10 6 -22 -3 -14 2 -10 11
11 20 42 15 59 -9 32z"/>
<path d="M3840 1198 c0 -11 38 -10 44 1 3 5 -5 8 -19 7 -14 0 -25 -4 -25 -8z"/>
<path d="M4241 1168 c-13 -16 -21 -31 -18 -34 3 -3 15 9 27 26 29 40 22 46 -9
8z"/>
<path d="M4170 1176 c0 -9 5 -16 10 -16 6 0 10 4 10 9 0 6 -4 13 -10 16 -5 3
-10 -1 -10 -9z"/>
<path d="M4264 1143 c-15 -21 -21 -32 -12 -25 23 19 36 8 32 -25 -2 -16 -1
-21 2 -13 4 8 16 25 27 38 16 17 19 27 11 39 -18 28 -30 25 -60 -14z m54 -1
c2 -7 -3 -12 -12 -12 -9 0 -16 7 -16 16 0 17 22 14 28 -4z"/>
<path d="M4330 1093 l-33 -29 38 -50 c21 -27 36 -41 32 -31 -5 14 0 17 33 17
46 0 54 8 33 35 -13 16 -15 17 -10 3 5 -15 0 -18 -37 -18 -35 0 -47 5 -60 24
-20 31 -3 45 25 20 20 -18 27 -6 7 14 -17 17 -2 27 17 12 23 -19 28 -6 6 14
-18 17 -21 16 -51 -11z"/>
<path d="M3861 1011 c-11 -7 -10 -10 6 -15 46 -15 72 -146 35 -179 -24 -22
-36 -22 -27 1 5 14 4 15 -6 5 -17 -17 -29 -16 -29 2 0 7 8 19 18 24 9 6 12 11
7 11 -15 0 -35 -21 -35 -37 0 -15 50 -63 66 -63 17 0 47 37 41 52 -4 10 -6 9
-6 -2 -1 -14 -41 -48 -41 -34 0 3 9 17 20 31 25 32 27 101 4 144 -8 17 -13 33
-10 36 8 9 46 -60 46 -85 0 -13 4 -20 10 -17 6 3 10 16 10 29 0 12 7 31 15 42
13 18 14 17 15 -19 0 -24 -5 -40 -15 -43 -8 -4 -15 -19 -15 -34 0 -16 -4 -32
-10 -35 -5 -3 -10 -14 -10 -23 1 -14 2 -14 12 3 11 19 11 19 20 0 6 -14 7 -9
3 15 -2 19 0 42 5 50 7 11 10 2 10 -32 0 -56 7 -76 30 -88 20 -11 78 13 87 36
6 16 -13 44 -30 44 -5 0 -2 -9 7 -19 13 -14 14 -21 6 -26 -7 -4 -16 -2 -20 5
-6 9 -9 8 -12 -6 -3 -17 -6 -16 -22 8 -12 19 -16 36 -11 57 9 43 61 111 85
111 23 0 27 18 6 26 -17 6 -86 -24 -86 -37 0 -5 -7 -9 -15 -9 -9 0 -15 9 -15
24 0 38 -17 40 -36 4 l-16 -32 -14 26 c-7 14 -24 33 -38 42 -29 19 -27 18 -45
7z m211 -71 c-12 -10 -29 -38 -38 -62 -14 -40 -14 -56 2 -105 5 -17 4 -17 -10
1 -10 13 -16 39 -16 74 0 46 4 58 29 83 16 16 35 29 43 29 8 -1 4 -8 -10 -20z"/>
<path d="M3467 993 c-29 -28 25 -83 62 -63 26 14 27 46 2 60 -22 11 -54 13
-64 3z m63 -18 c14 -17 5 -35 -19 -35 -22 0 -45 25 -36 40 9 15 41 12 55 -5z"/>
<path d="M4423 938 c-18 -6 -33 -15 -33 -20 0 -17 30 -68 40 -68 6 0 10 -9 10
-20 0 -11 -4 -20 -10 -20 -5 0 -10 -7 -10 -15 0 -8 9 -15 20 -15 23 0 27 -25
5 -34 -8 -3 -15 -10 -15 -16 0 -7 5 -8 13 -3 6 4 26 8 42 8 25 0 31 4 33 27 3
26 1 27 -45 30 l-48 3 38 22 c46 27 47 41 5 45 -38 4 -41 18 -7 35 13 7 24 17
23 23 -3 34 -6 35 -61 18z m47 -13 c0 -8 -4 -15 -10 -15 -5 0 -10 7 -10 15 0
8 5 15 10 15 6 0 10 -7 10 -15z m-32 -17 c-6 -18 -28 -21 -28 -4 0 9 7 16 16
16 9 0 14 -5 12 -12z m42 -62 c0 -3 -4 -8 -10 -11 -5 -3 -10 -1 -10 4 0 6 5
11 10 11 6 0 10 -2 10 -4z m25 -84 c0 -18 -20 -15 -23 4 -3 10 1 15 10 12 7
-3 13 -10 13 -16z"/>
<path d="M3474 904 c22 -8 41 -12 44 -9 6 6 -45 25 -66 24 -9 0 1 -7 22 -15z"/>
<path d="M3423 864 c-10 -25 11 -49 45 -52 27 -3 32 1 38 23 7 30 -7 50 -30
42 -18 -7 -22 -27 -6 -27 6 0 10 5 10 12 0 9 3 9 11 1 18 -18 2 -45 -22 -41
-31 4 -49 35 -29 48 10 7 11 10 2 10 -7 0 -15 -7 -19 -16z"/>
<path d="M3411 768 c-1 -23 3 -28 22 -28 12 0 32 -3 45 -6 20 -6 22 -3 21 27
-1 24 -3 27 -6 12 -2 -13 -11 -23 -19 -23 -8 0 -14 10 -15 23 l0 22 -9 -22
c-5 -13 -14 -23 -19 -23 -5 0 -12 10 -14 23 -4 19 -4 18 -6 -5z"/>
<path d="M3944 741 c0 -25 6 -46 12 -48 13 -4 34 40 33 70 -1 24 -4 18 -13
-25 -9 -40 -24 -34 -29 10 -4 33 -4 32 -3 -7z"/>
<path d="M3487 701 c-3 -13 -16 -21 -38 -24 -31 -3 -30 -4 9 -5 39 -2 42 0 42
23 0 30 -6 32 -13 6z"/>
<path d="M4432 705 c9 -9 68 -12 74 -4 3 5 -14 9 -37 9 -23 0 -40 -2 -37 -5z"/>
<path d="M4443 673 c36 -6 35 -22 -3 -29 -39 -8 -38 -20 1 -28 48 -9 68 -6 39
6 l-25 11 28 10 c15 6 27 14 27 18 0 7 -54 20 -79 18 -9 -1 -4 -4 12 -6z"/>
<path d="M3442 644 c-46 -32 -10 -77 47 -59 26 8 29 60 5 69 -22 9 -27 8 -52
-10z m58 -17 c0 -32 -52 -51 -63 -23 -3 7 0 19 6 25 15 15 57 14 57 -2z"/>
<path d="M3590 625 c0 -14 -4 -25 -8 -25 -5 0 -6 -17 -3 -37 5 -28 12 -39 27
-41 27 -4 43 17 51 62 7 42 -9 66 -43 66 -19 0 -24 -5 -24 -25z m47 -26 c2
-35 -6 -59 -23 -59 -10 0 -13 11 -10 43 5 53 4 49 19 45 6 -3 13 -16 14 -29z"/>
<path d="M3686 631 c-3 -4 -8 -35 -11 -67 -7 -73 10 -53 21 24 6 48 3 64 -10
43z"/>
<path d="M3715 603 c-4 -21 -9 -50 -11 -65 -3 -17 -1 -28 5 -28 6 0 11 11 11
25 0 35 16 31 36 -7 10 -18 19 -28 21 -21 2 7 0 21 -6 31 -8 15 -7 23 4 32 16
13 20 46 8 53 -5 2 -20 7 -35 11 -25 6 -28 3 -33 -31z m53 -5 c-3 -7 -11 -13
-18 -13 -7 0 -15 6 -17 13 -3 7 4 12 17 12 13 0 20 -5 18 -12z"/>
<path d="M3813 617 c-3 -6 -8 -34 -10 -64 -4 -58 4 -68 49 -61 24 5 19 8 -27
23 -23 7 -6 35 22 35 13 0 21 4 18 10 -3 6 -14 10 -25 10 -13 0 -17 5 -13 20
4 15 11 19 24 15 11 -4 19 -2 19 3 0 14 -49 21 -57 9z"/>
<path d="M3908 599 c-13 -7 -18 -23 -18 -59 0 -40 4 -50 20 -55 21 -7 50 9 50
28 0 5 -9 2 -19 -7 -19 -17 -20 -17 -30 3 -15 26 -14 43 3 66 11 15 17 17 28
7 19 -15 32 -3 17 15 -13 15 -28 16 -51 2z"/>
<path d="M4156 601 c-4 -6 -23 -11 -42 -11 -32 0 -34 -2 -34 -34 0 -18 -3 -48
-6 -65 -4 -20 -3 -31 5 -31 6 0 11 13 11 29 0 60 11 91 34 91 16 0 17 -3 7 -9
-21 -14 -26 -94 -7 -110 26 -22 63 0 71 42 7 38 -26 120 -39 98z m22 -64 c7
-34 -7 -67 -28 -67 -16 0 -20 7 -20 38 0 21 3 42 7 46 12 12 38 1 41 -17z"/>
<path d="M4418 597 c12 -14 4 -31 -18 -40 -10 -3 -6 -6 10 -7 14 -1 35 -3 48
-4 30 -3 28 10 -5 39 -30 26 -53 34 -35 12z"/>
<path d="M4008 593 c-22 -6 -36 -87 -18 -108 14 -17 46 -20 55 -4 10 16 -3 23
-18 11 -19 -16 -27 -5 -27 40 0 41 24 63 41 37 8 -12 10 -12 19 1 13 21 -14
33 -52 23z"/>
<path d="M4198 583 c7 -3 16 -2 19 1 4 3 -2 6 -13 5 -11 0 -14 -3 -6 -6z"/>
<path d="M3513 563 c20 -5 22 -24 5 -41 -19 -19 -48 -14 -58 11 -10 22 -10 22
-7 -3 3 -33 45 -39 71 -11 21 23 15 52 -11 50 -17 -1 -17 -2 0 -6z"/>
<path d="M4215 509 c-4 -33 -4 -63 -1 -66 3 -4 6 10 6 30 0 47 12 47 29 2 7
-19 16 -35 20 -35 8 0 21 70 21 108 0 27 -18 -1 -22 -33 -4 -29 -4 -29 -17 13
-8 23 -18 42 -22 42 -4 0 -10 -27 -14 -61z"/>
<path d="M4372 518 c-7 -7 -12 -20 -12 -30 0 -10 -4 -18 -9 -18 -5 0 -7 -9 -4
-20 3 -11 9 -20 14 -20 5 0 9 -5 9 -11 0 -8 -4 -8 -15 1 -8 6 -22 10 -32 8
-13 -3 -7 -9 21 -21 55 -24 60 -21 37 17 -25 39 -26 50 -7 43 8 -3 20 1 28 10
11 14 10 15 -10 9 -16 -6 -22 -3 -22 9 0 21 24 29 49 15 26 -13 27 -28 4 -47
-17 -13 -17 -14 2 -11 27 4 33 48 9 65 -22 16 -46 17 -62 1z"/>
<path d="M3576 424 l-28 -25 25 6 c30 8 44 -9 25 -33 -8 -10 -1 -8 20 7 35 25
44 15 12 -14 -11 -10 -20 -23 -20 -28 0 -6 9 -2 20 8 27 24 47 8 31 -24 -18
-32 -6 -25 25 17 15 20 21 31 12 24 -20 -16 -42 7 -31 33 4 13 3 16 -5 11 -7
-4 -12 -2 -12 5 0 8 -4 8 -16 -2 -13 -10 -17 -10 -24 1 -4 7 -6 19 -3 27 7 18
2 16 -31 -13z"/>
<path d="M4197 363 c-4 -3 -7 -15 -7 -25 0 -15 6 -19 28 -16 19 2 27 -2 27
-12 0 -9 -7 -14 -19 -12 -11 2 -15 -1 -11 -7 9 -16 30 -14 45 4 18 22 -6 48
-37 40 -27 -6 -31 9 -5 24 14 9 15 10 1 11 -9 0 -19 -3 -22 -7z"/>
<path d="M3727 314 c-21 -42 -22 -59 -2 -24 l14 25 1 -29 c0 -40 12 -25 15 19
3 48 -8 52 -28 9z"/>
<path d="M4141 283 c0 -39 2 -44 9 -25 10 23 25 29 35 12 3 -5 11 -10 16 -10
6 0 -2 16 -17 35 -14 19 -30 35 -35 35 -5 0 -9 -21 -8 -47z m24 17 c3 -5 1
-10 -4 -10 -6 0 -11 5 -11 10 0 6 2 10 4 10 3 0 8 -4 11 -10z"/>
<path d="M3776 301 c-11 -12 -14 -21 -8 -21 5 0 8 -10 6 -22 -3 -14 2 -10 11
11 20 42 15 59 -9 32z"/>
<path d="M4065 306 c-11 -8 -25 -12 -32 -9 -21 8 -45 -17 -32 -33 6 -8 18 -14
25 -14 8 0 14 -7 14 -15 0 -18 -11 -19 -29 -2 -11 10 -13 9 -9 -3 6 -19 38
-26 48 -9 11 17 2 36 -21 42 -10 3 -19 11 -19 17 0 7 7 10 16 6 8 -3 24 -1 35
4 15 9 20 7 25 -7 17 -54 21 -56 20 -11 -1 50 -10 57 -41 34z"/>
<path d="M3823 284 c-11 -16 -23 -36 -28 -44 -6 -12 -5 -13 6 -2 20 18 39 15
49 -10 8 -20 9 -19 9 12 0 19 -4 44 -8 54 -7 18 -9 17 -28 -10z"/>
<path d="M3886 284 c-3 -9 -5 -30 -5 -47 1 -24 3 -26 6 -9 2 12 8 22 13 22 5
0 16 -10 26 -22 16 -23 16 -23 11 -2 -2 12 -1 28 4 35 10 17 -8 39 -31 39 -10
0 -21 -7 -24 -16z m44 -9 c0 -8 -7 -15 -15 -15 -8 0 -15 7 -15 15 0 8 7 15 15
15 8 0 15 -7 15 -15z"/>
<path d="M3973 250 c0 -25 2 -35 4 -22 2 12 2 32 0 45 -2 12 -4 2 -4 -23z"/>
<path d="M1529 966 c-70 -25 -133 -86 -213 -208 -34 -50 -38 -63 -35 -107 l4
-51 -580 -2 -580 -3 590 -5 c565 -5 591 -6 622 -25 l31 -19 54 22 c52 21 63
22 437 22 212 0 382 2 379 5 -2 3 -211 5 -463 5 -312 1 -463 4 -472 12 -66 54
123 326 241 345 22 3 42 1 51 -7 10 -8 15 -9 15 -2 0 6 -9 16 -19 22 -23 12
-17 12 -62 -4z m-109 -386 c-20 -13 -77 -13 -85 0 -4 6 14 10 47 10 38 0 49
-3 38 -10z"/>
<path d="M1611 894 c-1 -25 -45 -113 -69 -140 -10 -11 -27 -32 -37 -47 -10
-15 -20 -25 -23 -22 -3 3 0 11 6 17 7 7 12 16 12 21 0 17 -21 -5 -40 -44 -19
-37 -42 -50 -54 -30 -9 14 13 63 42 94 17 18 21 27 11 27 -19 0 -69 -81 -69
-114 0 -40 45 -55 77 -25 12 13 23 17 23 11 0 -15 33 -15 48 0 8 8 15 8 26 -1
11 -9 20 -10 35 -2 11 6 26 8 34 5 9 -3 25 -1 36 6 17 9 21 8 21 -5 0 -32 25
-8 80 72 67 99 88 122 120 135 16 7 20 12 11 15 -23 9 -64 -31 -125 -121 -33
-47 -61 -84 -63 -82 -3 2 0 14 7 25 15 29 -1 26 -30 -4 -32 -34 -53 -34 -39 1
5 15 7 30 3 33 -4 3 -9 0 -11 -7 -9 -23 -51 -67 -58 -60 -4 4 3 23 15 42 29
48 14 46 -33 -4 -70 -75 -79 -39 -13 59 45 69 71 132 63 154 -3 6 -6 3 -6 -9z"/>
<path d="M2800 816 c-46 -11 -99 -44 -135 -83 -24 -26 -65 -40 -65 -22 0 7 12
25 27 41 14 15 24 31 20 35 -9 8 -45 -24 -52 -46 -5 -16 -58 -51 -78 -51 -6 0
1 12 15 28 27 29 45 72 30 72 -12 0 -49 -42 -56 -65 -9 -29 -55 -60 -68 -47
-7 7 -1 22 21 49 30 37 40 63 23 63 -5 0 -17 -9 -26 -19 -15 -17 -21 -18 -38
-8 -17 10 -22 8 -41 -16 -37 -48 -78 -87 -93 -87 -23 0 -16 30 17 67 31 36 32
50 4 39 -9 -3 -13 -11 -9 -17 4 -7 3 -9 -3 -6 -5 3 -20 -7 -32 -23 -24 -33
-81 -68 -81 -49 0 6 11 24 25 41 14 16 25 34 25 39 0 17 -26 9 -40 -13 -23
-34 -67 -78 -79 -78 -17 0 -13 31 6 52 9 10 13 21 10 25 -4 3 -26 -15 -50 -40
-42 -46 -67 -59 -67 -36 0 6 11 25 25 41 39 46 22 46 -31 -1 -26 -22 -51 -41
-55 -41 -15 0 -10 37 6 50 8 7 15 17 15 23 0 5 -23 -12 -51 -38 -54 -51 -74
-54 -40 -7 23 33 28 58 9 45 -7 -4 -21 -6 -30 -5 -17 3 -48 -43 -48 -70 0 -18
58 -20 83 -3 18 13 23 13 39 -2 15 -13 20 -14 34 -2 13 11 17 10 25 -4 13 -22
25 -21 56 3 24 19 26 19 39 3 12 -17 14 -17 41 -1 26 15 30 15 39 1 8 -13 14
-12 47 7 32 19 37 20 37 6 0 -27 27 -30 63 -7 26 16 36 18 46 8 9 -9 16 -9 31
1 16 9 24 10 39 0 15 -9 24 -8 44 5 18 12 27 13 36 4 8 -8 18 -5 40 11 28 20
31 21 40 5 9 -17 11 -17 72 15 4 1 9 -6 12 -18 3 -11 0 -20 -5 -20 -6 0 10
-11 36 -25 48 -26 86 -32 86 -16 0 13 -17 23 -53 30 -16 4 -36 16 -44 28 -13
19 -12 23 13 46 24 23 30 24 47 12 16 -11 26 -11 62 2 24 8 51 23 61 34 18 20
18 21 -1 35 -10 8 -21 13 -24 13 -3 -1 -26 -6 -51 -13z m70 -16 c0 -26 -101
-62 -115 -41 -9 16 11 39 38 44 42 8 77 7 77 -3z m-407 -55 c-3 -9 -8 -14 -10
-11 -3 3 -2 9 2 15 9 16 15 13 8 -4z m81 0 c-4 -8 -11 -15 -16 -15 -6 0 -5 6
2 15 7 8 14 15 16 15 2 0 1 -7 -2 -15z m-163 -18 c-10 -9 -11 -8 -5 6 3 10 9
15 12 12 3 -3 0 -11 -7 -18z m24 -37 c-20 -22 -35 -26 -35 -8 0 20 33 49 44
38 6 -6 3 -16 -9 -30z m-559 -2 c-18 -26 -22 -17 -5 14 6 11 13 17 16 15 3 -3
-2 -16 -11 -29z"/>
<path d="M2560 654 c-49 -8 -155 -37 -164 -45 -6 -5 -26 -10 -45 -10 -28 -1
-30 -3 -11 -6 71 -13 21 -21 -167 -26 -228 -7 -459 -29 -476 -46 -8 -8 -6 -16
6 -28 12 -13 32 -17 74 -16 78 2 493 56 488 63 -2 4 -48 1 -102 -6 -231 -29
-362 -44 -394 -44 -35 0 -68 14 -58 25 16 15 403 46 546 43 142 -3 152 -2 147
15 -5 15 4 17 88 19 l93 2 -90 5 -90 6 70 17 c39 10 95 21 125 26 39 7 45 10
20 9 -19 0 -46 -1 -60 -3z"/>
<path d="M2258 593 c7 -3 16 -2 19 1 4 3 -2 6 -13 5 -11 0 -14 -3 -6 -6z"/>
<path d="M2608 593 c12 -2 30 -2 40 0 9 3 -1 5 -23 4 -22 0 -30 -2 -17 -4z"/>
<path d="M2678 593 c6 -2 18 -2 25 0 6 3 1 5 -13 5 -14 0 -19 -2 -12 -5z"/>
<path d="M2778 593 c34 -2 90 -2 125 0 34 2 6 3 -63 3 -69 0 -97 -1 -62 -3z"/>
<path d="M3003 593 c20 -2 54 -2 75 0 20 2 3 4 -38 4 -41 0 -58 -2 -37 -4z"/>
<path d="M3120 591 c0 -5 9 -7 20 -4 11 3 20 7 20 9 0 2 -9 4 -20 4 -11 0 -20
-4 -20 -9z"/>
<path d="M2531 404 c-14 -50 -14 -128 0 -178 16 -59 31 -30 17 35 -8 41 -8 70
0 110 12 63 -1 90 -17 33z"/>
<path d="M2738 435 c-4 -4 -3 -18 3 -32 12 -31 12 -129 0 -171 -12 -39 5 -44
19 -6 21 55 2 233 -22 209z"/>
<path d="M1699 404 c-5 -167 -6 -159 25 -162 41 -5 85 16 101 49 18 33 19 50
4 82 -14 30 -39 45 -89 53 -39 6 -40 6 -41 -22z m85 -15 c18 -14 26 -30 26
-53 0 -44 -18 -65 -63 -73 l-38 -6 2 69 c1 38 4 72 6 77 8 13 40 7 67 -14z"/>
<path d="M1860 410 c0 -5 7 -10 15 -10 8 0 15 5 15 10 0 6 -7 10 -15 10 -8 0
-15 -4 -15 -10z"/>
<path d="M2238 373 c-7 -59 3 -133 18 -133 10 0 14 14 14 50 0 32 4 50 12 50
9 0 9 3 0 12 -7 7 -12 20 -12 30 0 29 -28 21 -32 -9z"/>
<path d="M1860 300 c0 -33 4 -60 10 -60 6 0 10 27 10 60 0 33 -4 60 -10 60 -6
0 -10 -27 -10 -60z"/>
<path d="M1924 351 c-2 -2 -4 -29 -4 -58 0 -39 4 -53 13 -50 11 4 14 12 16 65
1 15 9 26 21 29 31 8 24 22 -11 20 -17 -1 -32 -4 -35 -6z"/>
<path d="M2017 342 c-21 -23 -22 -66 -1 -86 19 -20 68 -21 83 -3 17 21 0 29
-21 10 -18 -16 -20 -15 -41 5 l-21 22 47 0 c40 0 47 3 47 19 0 46 -62 67 -93
33z m63 -17 c11 -13 8 -15 -19 -15 -30 0 -39 9 -24 23 11 11 30 8 43 -8z"/>
<path d="M2149 350 c-25 -15 -32 -58 -14 -86 11 -18 25 -24 50 -24 23 0 35 5
35 14 0 9 -8 12 -25 8 -27 -5 -55 12 -55 34 0 24 32 46 57 39 18 -4 24 -2 21
7 -6 16 -48 21 -69 8z"/>
<path d="M2310 340 c-40 -40 -16 -100 39 -100 33 0 61 27 61 58 0 28 -34 62
-60 62 -11 0 -29 -9 -40 -20z m70 -15 c7 -8 10 -25 6 -40 -11 -41 -76 -29 -76
15 0 36 47 53 70 25z"/>
<path d="M2430 298 c0 -45 3 -58 15 -58 11 0 15 12 15 46 0 37 4 47 20 51 32
9 23 21 -15 20 l-35 -1 0 -58z"/>
<path d="M2600 340 c-24 -24 -25 -48 -5 -78 13 -17 24 -21 60 -20 l45 2 0 53
c0 28 -4 55 -10 58 -5 3 -10 1 -10 -5 0 -7 -6 -8 -19 0 -28 14 -38 13 -61 -10z
m70 -15 c15 -19 6 -61 -16 -69 -24 -9 -44 12 -44 44 0 38 36 53 60 25z"/>
</g>
</svg>
